PathFileType	4	(X/Y/Z)	Patient4_TMGait_0pt3_02_right_09.trc.trc
DataRate	CameraRate	NumFrames	NumMarkers	Units	OrigDataRate	OrigDataStartFrame	OrigNumFrames
51.094890510949	51.094890510949	5	33	mm	51.094890510949	124	       141
Frame#	Time	Sacral			L.Shoulder			Chest			R.Shoulder			Neck			R.ASIS			L.ASIS			R.Thigh.Superior			R.Thigh.Lateral			R.Thigh.Inferior			R.Patella			L.Thigh.Superior			L.Thigh.Lateral			L.Thigh.Inferior			L.Patella			L.Shank.Superior			L.Shank.Lateral			L.Shank.Inferior			R.Shank.Superior			R.Shank.Lateral			R.Shank.Inferior			R.Heel			R.Midfoot.Superior			R.Midfoot.Lateral			R.Toe			L.Heel			L.Midfoot.Lateral			L.Midfoot.Superior			L.Toe			L.Elbow			L.Wrist			R.Elbow			R.Wrist			
		X1	Y1	Z1	X2	Y2	Z2	X3	Y3	Z3	X4	Y4	Z4	X5	Y5	Z5	X6	Y6	Z6	X7	Y7	Z7	X8	Y8	Z8	X9	Y9	Z9	X10	Y10	Z10	X11	Y11	Z11	X12	Y12	Z12	X13	Y13	Z13	X14	Y14	Z14	X15	Y15	Z15	X16	Y16	Z16	X17	Y17	Z17	X18	Y18	Z18	X19	Y19	Z19	X20	Y20	Z20	X21	Y21	Z21	X22	Y22	Z22	X23	Y23	Z23	X24	Y24	Z24	X25	Y25	Z25	X26	Y26	Z26	X27	Y27	Z27	X28	Y28	Z28	X29	Y29	Z29	X30	Y30	Z30	X31	Y31	Z31	X32	Y32	Z32	X33	Y33	Z33	

124	18.937285714286	748.045077890204	1005.283560996971	431.628601439531	1007.138125448252	1432.086928904791	337.342762827230	1045.493711558685	1344.059324431970	515.664536520849	915.891053399467	1414.474856650377	659.339645915579	946.954285476922	1484.502849273577	488.437305251842	940.713861817649	934.180785763405	604.282111696863	993.957784430194	951.069694560669	334.289023273558	1017.029563864149	757.526852972971	578.372027295533	956.158294270283	635.693874152195	635.360828899577	1050.366093866935	598.621645875550	563.412497276037	1073.399541219583	513.020523901857	577.295782315393	992.158732263146	721.738770539806	373.661998978657	894.263811970414	619.916333677518	294.476002993926	940.003275108377	532.747197116216	377.042382961419	923.279167997536	465.708191380310	385.445050948858	885.786882271646	399.066158959236	371.175447925003	787.725690472446	298.855430054287	309.175797435712	807.116741440832	183.944222330474	388.446562573662	1053.147742642745	421.236415982705	586.140924190145	990.188339675822	310.791236627295	649.291680116094	1053.298030470153	219.646490588693	596.872155274212	946.047278976439	38.787950374787	568.288056959469	1110.563561196350	107.787703851806	608.028545387899	1031.071871075608	32.770231375521	640.305785191886	1235.308860216360	69.455072680577	632.127278697538	655.934096902735	38.989641267984	416.966993853405	735.126060211241	35.862019272103	342.069067431962	818.188986545211	95.324171792624	375.883501905997	946.814781426303	39.860736000397	353.794302326238	1135.502770983492	1146.184229199020	163.697406173826	1389.165125156013	1124.535564985691	210.662687314574	723.649424340525	1111.481580285412	690.335204092611	665.666420002928	856.838512292868	684.244166481369	
125	18.956857142857	750.513460271408	1003.965856710292	435.446926233618	1008.981281625825	1430.982455478586	342.867728664906	1046.774816477721	1343.054818485137	521.371740705862	916.479992973987	1413.410707094331	664.523258190144	948.016102137485	1483.343233525337	493.760257496705	942.667813654433	932.590412550171	608.704529867686	996.758687956335	950.087247717192	338.938601686987	1018.557084783726	755.255771989379	582.564748712286	956.168323317411	633.306880100645	638.170213353584	1051.138661619641	596.439902998012	567.059624646384	1072.631075732465	511.071804582507	579.835311141681	992.144438519387	719.940867823657	376.284955761011	892.293694788081	619.938796668299	296.490908633629	936.827739283235	531.661323491810	378.108890030181	919.103124346284	464.966218407384	386.308013328736	881.514903492373	398.768786498623	371.887759908447	782.635692263542	299.305729439148	309.667275218347	801.740729820462	183.917971652445	388.473654753442	1053.294734099201	419.099133796249	588.136385356785	991.004755749359	308.302056248373	650.753509915414	1053.970022395160	217.781620342718	597.483270477885	946.499030546868	38.651621978367	568.087629687307	1111.176019488450	106.361687258459	608.322417144667	1030.804703928351	33.004757920361	640.744605475130	1234.897855634120	66.959684185514	633.312729349191	650.053665987341	39.102849659552	416.889857717016	729.299621594497	35.706001602771	342.051511278420	812.438974052475	95.265297803950	375.693963343304	941.050343975915	39.738192981755	353.741725469820	1139.543026000648	1145.720666042646	169.977124739948	1393.610611343030	1133.092768210218	217.585666082440	725.958651775876	1109.461040782471	694.754043059639	672.048864618363	853.652300955010	689.037142846999	
126	18.976428571429	753.174855651747	1002.972852764888	439.749145774511	1010.814451637805	1430.223977499485	348.549331471352	1048.275275988904	1342.373877073995	527.199235502263	917.388259716609	1412.609007221930	669.940715451003	949.168081433961	1482.488599981846	499.302526818168	945.140718968362	931.318723558461	613.251678035428	999.609145205049	949.466069404181	343.664543588097	1020.749126363264	753.431393482973	586.324054803008	957.179834643157	631.368148163551	640.720480450383	1052.599917037725	594.603287599349	570.123739069218	1072.633025832671	509.103968725265	581.909109214009	992.379416405879	718.417738395692	378.782154077821	890.416443952718	620.240609762763	298.699739668161	934.072555361830	530.822652713120	379.225075460937	915.454550912197	464.383257614746	387.253488984071	877.624957147925	398.699048638381	372.668166923072	777.695933278409	300.113760872722	310.307471226315	796.610929411482	184.093910184175	388.466155835690	1053.475620018057	417.021036282869	589.657722149179	991.071903325632	306.440727804883	651.778190450574	1052.961084763917	216.088036703068	597.550092820242	943.694258071949	39.360690984040	567.441859783008	1109.031718740090	104.892993157705	608.112062695857	1027.244164489480	33.793927019269	640.839992129120	1231.510324862623	63.681113400538	634.183223366913	644.282925862546	39.475385445640	416.799021637163	723.593075224558	35.608029382332	342.052259169437	806.915297083922	95.210031445025	375.431529981695	935.442218954924	39.540222954329	353.674466096987	1142.985608909680	1145.049406236172	176.643742192119	1397.252145534915	1140.382914175058	224.597022185195	729.403568179927	1107.058798494675	699.924787372698	680.687322576698	849.910534117378	695.079390435915	
127	18.996000000000	755.929989825981	1002.415089701100	444.512140557413	1012.647307059209	1429.878389919186	354.317297167049	1049.986056050048	1342.070481900363	533.076648426478	918.638005285468	1412.162617751246	675.521654937224	950.429370235935	1482.022192457402	504.984474691098	948.006536898948	930.450893734930	617.904525898718	1002.394885463879	949.265037050902	348.445459808866	1023.350286524630	752.064568885313	589.750535322195	958.884691160771	629.943399183272	643.158535531314	1054.388753497754	593.138522452235	572.714286814266	1073.106561795018	507.262265365799	583.638538758912	992.814092773290	717.273509465802	381.221009595909	888.695244489722	620.853809238331	301.119123955507	931.835879563815	530.281869252150	380.433718780801	912.462029219958	463.978506582149	388.292518343733	874.219385577740	398.887769572188	373.535468119048	772.997224990931	301.335750713753	311.122815577929	791.794307995070	184.525521590096	388.440528551019	1053.588432192399	415.126496361039	590.837718813081	990.555995762930	305.096469553230	652.541729391643	1050.722219550575	214.574142122592	597.248149385587	938.585804547288	40.487509742296	566.582771251498	1104.925254119054	103.421738889361	607.522373425826	1021.458221010215	34.823503387583	640.710880424437	1226.155790794435	60.013030449314	634.701655120859	638.654034994569	40.235075585100	416.683673908176	718.030205151813	35.655712537535	342.060015074889	801.672568099851	95.185722424729	375.101963185720	930.002619551616	39.259005509014	353.606546283999	1145.855436978624	1144.263989166425	183.619433272988	1400.189051530765	1146.320510748725	231.681139620119	733.821333768970	1104.504779947009	705.778073931417	691.265351213449	845.964280868814	702.295346558069	
128	19.015571428571	758.671461061087	1002.347158895217	449.701095401129	1014.447385892392	1429.971641124378	360.090800714494	1051.872090234438	1342.165165681969	538.919304238855	920.232961412669	1412.123449437559	681.192253658227	951.793524106145	1481.988409337972	510.718012132909	951.115229161448	930.020395540051	622.639918359676	1005.001153250668	949.502983615164	353.261826179924	1026.079356829559	751.108462135115	592.999873804524	960.897265183859	629.031382687176	645.637728550240	1056.129576394160	592.021947088615	575.012239908287	1073.684429401064	505.639931588210	585.199545910668	993.441285485134	716.593791634785	383.687168497731	887.269921461322	621.764715336958	303.777287611040	930.296079464638	530.060704766377	381.798056211856	910.338619511003	463.735065654987	389.450874121682	871.469055718225	399.327617992721	374.527518337131	768.695808597518	303.019734189667	312.142703772549	787.374733835105	185.266734037407	388.422306239372	1053.462440244309	413.497207175171	591.852951041545	989.517435655913	304.152081497818	653.212284770280	1047.614081657767	213.256359181995	596.778268632398	932.051530219547	41.710877086215	565.699578160377	1099.557045938967	102.017434809323	606.714599299510	1014.389358368198	35.862180761613	640.468720821671	1219.685041022918	56.326565972800	634.904678748871	633.195375548123	41.553384762049	416.525021090893	712.626663690491	35.984478360107	342.055249467069	796.754922016685	95.245700874044	374.716713968525	924.716789734386	38.891992286063	353.554561557937	1148.161150191327	1143.436218010493	190.818667793390	1402.494045631219	1150.799803520465	238.817114724127	739.072506680744	1101.983136340467	712.249806195473	703.493852800969	842.125431166655	710.595196321873	
